<?xml version="1.0" encoding="utf-8"?>
<!-- Generator: Adobe Illustrator 27.8.1, SVG Export Plug-In . SVG Version: 6.00 Build 0)  -->
<svg version="1.0" xmlns="http://www.w3.org/2000/svg" xmlns:xlink="http://www.w3.org/1999/xlink" x="0px" y="0px"
	 viewBox="0 0 900 900" enable-background="new 0 0 900 900" xml:space="preserve">
<g id="BACKGROUND" display="none">
	<rect x="196.6" y="236" display="inline" fill="#B9D7FE" width="500" height="500"/>
</g>
<g id="Camada_4" display="none">
	
		<ellipse transform="matrix(0.7071 -0.7071 0.7071 0.7071 -194.2783 453.2649)" display="inline" fill="#17C096" cx="450" cy="461.1" rx="430.7" ry="430.7"/>
</g>
<g id="OBJECTS">
	<ellipse fill="#E3EAFF" cx="515.2" cy="782.7" rx="282.5" ry="110.5"/>
	<ellipse fill="#B9D7FE" cx="498" cy="743.8" rx="226.7" ry="89.4"/>
	<path fill="#717FBF" d="M547.6,803.5H410.7c-89.4,0-162.6-73.2-162.6-162.6V326c0-122.6,100.3-223,223-223h16.2
		c122.6,0,223,100.3,223,223v314.9C710.2,730.3,637,803.5,547.6,803.5z"/>
	<path fill="#B9D7FE" d="M131.9,790.7l-17.4-13.4c40.6-52.8,57.6-126.1,50.6-217.9c-2.8-36.3-8.8-73.2-14.6-108.8
		c-6.6-40.8-13.5-83-15.8-125.2c-5.1-96,17.6-175.6,65.9-230.3C242.2,47.9,306,17.5,371.3,13.8c42-2.4,81.5,5.8,114.3,23.7
		c36.5,19.9,63.1,51.7,73.1,87.3l-21.1,5.9c-8.4-29.9-31.2-56.9-62.5-74c-28.8-15.7-65.2-23.1-102.5-21C313,39,254.9,66.7,217,109.6
		c-56,63.5-63.8,151.8-60.4,214.6c2.2,41,9,82.6,15.5,122.8c5.9,36.1,12,73.4,14.8,110.7C194.5,655.1,175.9,733.5,131.9,790.7z"/>
	
		<line fill="none" stroke="#717FBF" stroke-width="2" stroke-linecap="round" stroke-linejoin="round" stroke-miterlimit="10" x1="105.3" y1="767.7" x2="74.4" y2="758"/>
	
		<line fill="none" stroke="#717FBF" stroke-width="2" stroke-linecap="round" stroke-linejoin="round" stroke-miterlimit="10" x1="99.8" y1="784" x2="66.5" y2="793.6"/>
	
		<line fill="none" stroke="#717FBF" stroke-width="2" stroke-linecap="round" stroke-linejoin="round" stroke-miterlimit="10" x1="111.1" y1="796.7" x2="100.6" y2="824.8"/>
	
		<line fill="none" stroke="#717FBF" stroke-width="2" stroke-linecap="round" stroke-linejoin="round" stroke-miterlimit="10" x1="131.8" y1="804.5" x2="144.4" y2="830.7"/>
	
		<line fill="none" stroke="#717FBF" stroke-width="2" stroke-linecap="round" stroke-linejoin="round" stroke-miterlimit="10" x1="147.5" y1="788.8" x2="181.1" y2="793.2"/>
	<path fill="#B9D7FE" d="M352.9,675.1V330.5c0-110.9,81.1-203.6,186.9-222c-8.1-0.9-16.3-1.4-24.6-1.4h0c-119.3,0-217,97.6-217,217
		v331.7c0,76.2,54.5,140.2,126.5,155C381.4,781.1,352.9,731.3,352.9,675.1z"/>
	<path fill="#E3EAFF" d="M597,123.2c45.5,45.8,73.7,108.8,73.7,178.1v387c0,43.6-15.3,83.7-40.8,115.4
		c59.7-22.7,102.4-80.6,102.4-148V324C732.2,233.6,676.1,155.7,597,123.2z"/>
	<path fill="#E3EAFF" d="M670.7,301.3c0-69.3-28.2-132.2-73.7-178.1c-18-7.4-37.2-12.4-57.2-14.7c-105.8,18.4-186.9,111.2-186.9,222
		v344.6c0,56.1,28.5,105.9,71.8,135.6c10.3,2.1,20.9,3.2,31.8,3.2h117.4c19.7,0,38.5-3.7,55.9-10.3c25.5-31.7,40.8-71.8,40.8-115.4
		V301.3z"/>
	<path fill="none" stroke="#717FBF" stroke-width="1.8897" stroke-linecap="round" stroke-miterlimit="10" d="M322.4,566.7
		c0,0-110.3,78.1,240.1,64.5"/>
	<path fill="none" stroke="#717FBF" stroke-width="2" stroke-linecap="round" stroke-miterlimit="10" d="M732.2,562
		c0,0,101.7,67.5-143.9,67.5"/>
	<path fill="none" stroke="#717FBF" stroke-width="2" stroke-linecap="round" stroke-miterlimit="10" d="M476.5,815.5
		c0,0,40.1-537.4,66.6,22.4"/>
	<path fill="none" stroke="#717FBF" stroke-width="2" stroke-linecap="round" stroke-miterlimit="10" d="M581.3,815.3
		c0,0,40.1-535.5,66.6,24.4"/>
	<g>
		<path fill="#717FBF" d="M298.2,370.6c124.2-36.1,276.5-48.8,401.4-11.2c3.2,1,9.9,3.1,13.1,4.2c4.8,1.6,14.6,5.4,19.4,7.1
			c-7.7-2.5-18.5-6.3-26.2-8.4c-4-1.1-9.3-2.8-13.2-3.7c-7.8-1.9-19-4.7-26.8-6.2c-7.6-1.8-19.3-3.6-27-5
			c-7.9-1.1-19.4-2.8-27.3-3.5c-3.8-0.4-9.8-1.1-13.7-1.4C497.5,334,395.7,345.6,298.2,370.6L298.2,370.6z"/>
	</g>
	
		<line fill="none" stroke="#717FBF" stroke-width="2" stroke-linecap="round" stroke-miterlimit="10" x1="548.2" y1="338.1" x2="548.2" y2="113.1"/>
	<g>
		<path fill="#717FBF" d="M543.7,293.8L543.7,293.8c-11.9,0-21.7-9.8-21.7-21.7v-104c0-11.9,9.8-21.7,21.7-21.7l0,0
			c11.9,0,21.7,9.8,21.7,21.7v104C565.5,284.1,555.7,293.8,543.7,293.8z"/>
		<path fill="#717FBF" d="M548.7,147v146.2c9.6-2.3,16.8-10.9,16.8-21.1v-104C565.5,157.9,558.3,149.3,548.7,147z"/>
		<path fill="#717FBF" d="M543.7,293.8L543.7,293.8c-11.9,0-21.7-9.8-21.7-21.7v-104c0-11.9,9.8-21.7,21.7-21.7l0,0
			c11.9,0,21.7,9.8,21.7,21.7v104C565.5,284.1,555.7,293.8,543.7,293.8z"/>
	</g>
	<g>
		<path fill="#B9D7FE" d="M552.1,290.3L552.1,290.3c-11.9,0-21.7-9.8-21.7-21.7v-104c0-11.9,9.8-21.7,21.7-21.7l0,0
			c11.9,0,21.7,9.8,21.7,21.7v104C573.8,280.5,564,290.3,552.1,290.3z"/>
		<path fill="#FFFFFF" d="M557,143.5v146.2c9.6-2.3,16.8-10.9,16.8-21.1v-104C573.8,154.3,566.6,145.7,557,143.5z"/>
		<path fill="none" d="M552.1,290.3L552.1,290.3c-11.9,0-21.7-9.8-21.7-21.7v-104c0-11.9,9.8-21.7,21.7-21.7l0,0
			c11.9,0,21.7,9.8,21.7,21.7v104C573.8,280.5,564,290.3,552.1,290.3z"/>
	</g>
	
		<line fill="none" stroke="#717FBF" stroke-width="2" stroke-linecap="round" stroke-miterlimit="10" x1="656.8" y1="94.5" x2="656.8" y2="243.1"/>
	
		<line fill="none" stroke="#717FBF" stroke-width="2" stroke-linecap="round" stroke-miterlimit="10" x1="629.1" y1="106.2" x2="629.1" y2="191.5"/>
	
		<line fill="none" stroke="#717FBF" stroke-width="2" stroke-linecap="round" stroke-miterlimit="10" x1="684.5" y1="139.7" x2="684.5" y2="233.7"/>
	<g>
		<path fill="#0F154F" d="M486,440.5c0,5.8-4.7,10.6-10.6,10.6c-5.8,0-10.6-4.7-10.6-10.6c0-5.8,4.7-10.6,10.6-10.6
			C481.2,430,486,434.7,486,440.5z"/>
		<path fill="#0F154F" d="M651.7,440.5c0,5.8-4.7,10.6-10.6,10.6c-5.8,0-10.6-4.7-10.6-10.6c0-5.8,4.7-10.6,10.6-10.6
			C646.9,430,651.7,434.7,651.7,440.5z"/>
		<g>
			<path fill="#0F154F" d="M478.9,501.6c25-27.4,64.7-39.6,100.9-31.9c14.5,3,28.3,8.9,40.3,17.4c6,4.3,11.6,9.1,16.5,14.5
				C592.3,460.1,523.2,460.1,478.9,501.6L478.9,501.6z"/>
		</g>
		<g>
			<path fill="#0F154F" d="M663.1,423.1c-10.6,3.9-23.3-5.5-22.8-16.8c0.9,2.5,2,4.8,3.5,6.8C648.2,419.5,655.4,422.9,663.1,423.1
				L663.1,423.1z"/>
		</g>
		<g>
			<path fill="#0F154F" d="M450.2,429c7.7-0.2,14.9-3.6,19.3-9.9c1.4-2,2.6-4.3,3.5-6.8C473.5,423.6,460.8,432.9,450.2,429
				L450.2,429z"/>
		</g>
		<path fill="#0F154F" d="M609.1,629.5c0,7-8.3,12.7-18.5,12.7c-10.2,0-18.5-5.7-18.5-12.7s8.3-12.7,18.5-12.7
			C600.8,616.7,609.1,622.5,609.1,629.5z"/>
		<ellipse fill="#0F154F" cx="553.6" cy="631.5" rx="18.5" ry="12.7"/>
		<path fill="#0F154F" d="M585.2,862.1c-2.8,6.5-17.2,6.4-32.1-0.1c-14.9-6.5-24.7-17-21.9-23.4c2.8-6.5,17.2-6.4,32.1,0.1
			C578.2,845.2,588,855.6,585.2,862.1z"/>
		<path fill="#0F154F" d="M688.6,858.2c-2.8,6.5-17.2,6.4-32.1-0.1c-14.9-6.5-24.7-17-21.9-23.4c2.8-6.5,17.2-6.4,32.1,0.1
			C681.6,841.2,691.4,851.7,688.6,858.2z"/>
	</g>
</g>
<g id="DESIGNED_BY_FREEPIK">
</g>
</svg>
