<svg width="65" height="65" viewBox="0 0 65 65" fill="none" xmlns="http://www.w3.org/2000/svg">
<path d="M0 58.5929V6.34773C0.21759 5.49741 0.45496 4.64709 0.909921 3.87587C2.13634 1.74019 3.97596 0.514147 6.34966 0C23.7568 0 41.1838 0 58.6108 0C58.8679 0.0790995 59.1449 0.138424 59.402 0.217524C62.6658 1.12717 65 4.11317 65 7.4749C65 24.1451 65 40.8153 65 57.5053C65 61.5789 61.5977 64.9802 57.503 65C40.8278 65 24.1525 65 7.45739 65C6.13208 65 4.90566 64.6441 3.77815 63.9915C1.70116 62.7852 0.514303 60.9264 0 58.6127L0 58.5929ZM5.12325 32.4506C5.12325 40.578 5.12325 48.7253 5.12325 56.8528C5.12325 58.7709 6.11229 59.7992 7.99148 59.7992C16.7346 59.7992 25.4976 59.7992 34.2407 59.7992C34.8144 59.7992 34.9726 59.5817 34.9726 59.0478C34.9726 52.6803 34.9726 46.3325 34.9726 39.965C34.9726 39.3718 34.7748 39.1938 34.2012 39.2136C32.1637 39.2333 30.1461 39.2136 28.1086 39.2333C27.535 39.2333 27.3372 39.0751 27.3372 38.4819C27.357 36.3264 27.357 34.171 27.3372 32.0155C27.3372 31.442 27.5152 31.2443 28.0889 31.2641C30.0472 31.2838 32.0253 31.2641 33.9836 31.2641C34.9528 31.2641 34.933 31.2641 34.9528 30.2753C35.0122 28.1792 34.8144 26.0831 35.0913 24.0067C35.7243 19.1816 40.0167 14.8905 44.8235 14.2775C47.0192 14.0006 49.2148 14.1984 51.4105 14.139C51.9248 14.139 51.9248 14.4554 51.9248 14.8114C51.9248 17.0064 51.9248 19.2014 51.9248 21.3964C51.9248 21.9699 51.7072 22.1083 51.1732 22.1083C49.8281 22.0885 48.4632 22.1083 47.1181 22.1083C44.4279 22.1083 42.9245 23.631 42.9047 26.3401C42.9047 27.7046 42.9047 29.0888 42.9047 30.4533C42.9047 31.2443 42.9245 31.2641 43.7355 31.2641C46.2477 31.2641 48.7599 31.2641 51.2918 31.2641C52.0435 31.2641 52.0633 31.3036 51.9446 32.0155C51.5886 34.1908 51.2325 36.3462 50.8962 38.5214C50.8171 39.0751 50.5797 39.2531 50.0259 39.2333C47.9093 39.2136 45.7928 39.2333 43.6762 39.2136C43.1026 39.2136 42.9047 39.3718 42.9047 39.965C42.9047 46.3325 42.9047 52.6803 42.9047 59.0478C42.9047 59.641 43.1223 59.819 43.696 59.7992C45.1795 59.7794 46.6631 59.7992 48.1269 59.7992C51.0347 59.7992 53.9623 59.7992 56.8701 59.7992C58.8086 59.7992 59.7778 58.7907 59.7976 56.8528C59.7976 56.7934 59.7976 56.7341 59.7976 56.655C59.7976 40.4989 59.7976 24.3626 59.7976 8.20657C59.7976 8.06815 59.7976 7.90995 59.7976 7.77152C59.7185 6.13021 58.7888 5.20079 57.147 5.12169C56.9294 5.12169 56.7316 5.12169 56.514 5.12169C40.4717 5.12169 24.4294 5.12169 8.36732 5.12169C8.14973 5.12169 7.95192 5.12169 7.73433 5.12169C6.11229 5.22057 5.18259 6.14998 5.08369 7.77152C5.08369 8.0286 5.08369 8.28567 5.08369 8.52297C5.08369 16.4922 5.08369 24.4615 5.08369 32.4308L5.12325 32.4506Z" fill="#17C096"/>
</svg>
