<svg width="78" height="77" viewBox="0 0 78 77" fill="none" xmlns="http://www.w3.org/2000/svg">
<g clip-path="url(#clip0_15_347)">
<path d="M34.0011 61.9093C34.0643 56.9558 33.3894 58.5443 36.8064 55.1374C46.9097 45.0421 57.0763 34.9886 67.2006 24.9142C69.2677 22.8659 71.7355 22.8659 73.8237 24.9142C74.7728 25.8339 75.7009 26.7535 76.6079 27.6732C78.4429 29.5543 78.4429 32.0415 76.6079 33.8808C75.2369 35.2603 73.8659 36.6189 72.4738 37.9775C72.0941 38.3537 72.073 38.5836 72.4527 38.9807C74.119 40.7782 74.0768 43.2028 72.3261 44.9585C70.3223 46.9859 68.2764 48.9924 66.2304 50.9989C65.4711 51.7514 65.4711 52.0649 66.2304 52.8173C66.6311 53.2353 67.0741 53.6116 67.4537 54.0505C68.1287 54.8029 68.0865 55.7853 67.4327 56.4541C66.7788 57.123 65.8296 57.2066 65.0703 56.5795C64.2899 55.9316 63.5305 55.221 62.9189 54.4058C61.6744 52.7128 61.8221 50.4764 63.3196 48.9715C65.3023 46.9859 67.3061 45.0212 69.2888 43.0356C69.4786 42.8475 69.6685 42.6802 69.8372 42.4712C70.1536 42.0532 70.1536 41.6352 69.7528 41.2799C69.2888 40.8618 69.099 41.3635 68.8669 41.5725C60.6831 49.703 52.4992 57.8336 44.3364 65.9851C43.6192 66.6957 42.881 67.0719 41.8264 67.0301C39.9281 66.9674 38.0297 67.0301 36.1314 67.0301C34.7393 67.0301 34.0433 66.3613 33.98 64.9818C33.98 64.94 33.98 64.8773 33.98 64.8355C33.98 63.8741 33.98 62.9126 33.98 61.9511L34.0011 61.9093ZM40.0546 63.4978C41.2991 63.8741 42.2904 63.1216 43.2818 62.0975C47.1628 58.1262 51.1282 54.2386 55.0514 50.3092C57.7301 47.6547 60.3878 44.9794 63.0876 42.3458C63.5306 41.9069 63.5306 41.6352 63.0876 41.2172C62.0541 40.2557 61.0416 39.2733 60.0714 38.2283C59.5441 37.6431 59.2277 37.7476 58.7215 38.2701C52.1406 44.854 45.5808 51.4169 38.9367 57.9381C37.9243 58.9414 37.4391 59.9028 37.5024 61.3241C37.629 63.4978 37.5235 63.5187 40.0335 63.5187L40.0546 63.4978ZM74.4143 30.7875C74.3721 30.4948 74.1823 30.2649 73.9713 30.0559C73.0644 29.1572 72.1363 28.2584 71.2293 27.3388C70.7231 26.8371 70.2591 26.8162 69.7317 27.3388C67.3061 29.7633 64.8594 32.1669 62.4337 34.5706C62.0963 34.905 62.0119 35.1558 62.3916 35.532C63.5305 36.6189 64.6274 37.7267 65.7453 38.8344C66.0406 39.1479 66.2726 39.1688 66.589 38.8344C69.0779 36.3472 71.5668 33.8808 74.0557 31.4145C74.2455 31.2264 74.3932 31.0174 74.4143 30.7457V30.7875Z" fill="#17C096"/>
<path d="M15.3132 77C11.8118 77 8.31049 77 4.78804 77C2.53115 77 0.61173 75.8086 0.316435 73.8857C-0.105415 71.1686 -0.295247 68.3678 0.632822 65.6924C1.51871 63.0798 3.43812 61.4077 6.07468 60.5089C6.96057 60.2163 6.96057 60.2163 6.34889 59.5057C4.51384 57.3738 3.56468 54.9074 3.48031 52.1276C3.29048 47.0695 6.72855 42.2622 11.5798 40.6946C18.8145 38.3537 26.3024 43.0146 27.2094 50.4764C27.6312 53.9042 26.6399 56.9766 24.3197 59.5893C23.8978 60.0491 23.7713 60.2372 24.5306 60.4671C28.264 61.5749 30.5209 64.5847 30.6896 68.6395C30.7529 69.9145 30.7318 71.1895 30.6896 72.4644C30.6052 75.2443 28.7913 76.9582 25.986 76.9791C22.4214 76.9791 18.8778 76.9791 15.3132 76.9791V77ZM15.3765 60.07C20.0379 60.07 23.708 56.4541 23.708 51.835C23.708 47.2785 19.9535 43.5581 15.3554 43.579C10.8205 43.579 6.98166 47.4039 7.02385 51.8977C7.06603 56.4123 10.7994 60.07 15.3765 60.07ZM15.4397 63.5814C13.2883 63.5814 11.1158 63.5605 8.96435 63.5814C5.7372 63.6232 3.69123 65.6715 3.69123 68.8485C3.69123 69.601 3.69123 70.3534 3.69123 71.1059C3.69123 73.5304 3.48031 73.4886 6.20124 73.4886C6.77073 73.4886 6.93948 73.2796 6.91838 72.757C6.89729 71.3985 6.91838 70.0399 6.91838 68.7022C6.91838 67.5945 7.59334 66.842 8.58469 66.8002C9.53385 66.7584 10.251 67.4272 10.4197 68.4932C10.4619 68.8067 10.4619 69.1202 10.4619 69.4338C10.4619 70.5624 10.4619 71.6702 10.4619 72.7988C10.4619 73.3423 10.6728 73.5304 11.2212 73.5304C14.0476 73.5304 16.8529 73.5304 19.6793 73.5304C20.2488 73.5304 20.4176 73.3214 20.3965 72.7988C20.3754 71.4612 20.3965 70.1444 20.3965 68.8067C20.3965 67.6154 21.1347 66.8211 22.1682 66.8211C23.2018 66.8211 23.9189 67.6363 23.94 68.8067C23.94 69.7264 23.94 70.6251 23.94 71.5448C24.0033 73.8648 23.4338 73.4886 26.0914 73.5095C26.8086 73.5095 27.1461 73.1124 27.1461 72.4226C27.1461 71.3776 27.1461 70.3325 27.1461 69.2874C27.1461 68.5559 27.1039 67.8244 26.8719 67.1137C26.1969 64.94 24.3197 63.6232 21.8308 63.6023C19.7004 63.5814 17.5701 63.6023 15.4397 63.6023V63.5814Z" fill="#17C096"/>
<path d="M47.7745 10.2207C41.7842 10.2207 35.8151 10.2207 29.8248 10.2207C29.7193 10.2207 29.6139 10.2207 29.5084 10.2207C28.0319 10.2207 27.1882 9.57276 27.1882 8.46499C27.1882 7.35723 28.0319 6.70929 29.5084 6.70929C31.8075 6.70929 34.0855 6.68839 36.3846 6.70929C37.0806 6.70929 37.3337 6.50028 37.2704 5.81054C37.1228 3.86673 37.6923 2.19464 39.3375 1.02417C41.0038 -0.146297 42.7967 -0.334408 44.6317 0.564343C46.4457 1.46309 47.4159 2.98888 47.4792 5.0163C47.5214 6.68839 47.5214 6.68839 49.2088 6.68839C54.9249 6.68839 60.6409 6.68839 66.357 6.68839C69.3099 6.68839 71.1028 8.42319 71.145 11.3285C71.1872 13.5858 71.1872 15.864 71.1872 18.1213C71.1872 19.3754 70.4911 20.1906 69.4365 20.2115C68.3819 20.2115 67.6436 19.4172 67.6436 18.1631C67.6436 16.0312 67.6436 13.8993 67.6225 11.7465C67.6225 10.367 67.4538 10.1998 66.0828 10.1998C59.966 10.1998 53.8491 10.1998 47.7323 10.1998L47.7745 10.2207ZM42.3748 6.68839C43.4294 6.68839 43.9568 6.34004 43.9568 5.64333C43.9568 4.30566 43.4084 3.55321 42.3959 3.53231C41.4046 3.53231 40.814 4.28476 40.814 5.60153C40.814 6.32611 41.3343 6.68839 42.3748 6.68839Z" fill="#17C096"/>
<path d="M51.1915 73.4886C56.1693 73.4886 61.1471 73.4886 66.146 73.4886C67.4327 73.4886 67.6647 73.2587 67.6647 71.9837C67.6647 68.7022 67.6647 65.4208 67.6858 62.1393C67.6858 60.8643 68.5084 60.0283 69.5841 60.1328C70.47 60.2164 71.2082 60.8643 71.2082 61.763C71.2082 65.4835 71.2926 69.2248 71.1239 72.9452C70.9973 75.516 69.1412 77 66.5046 77C61.6322 77 56.7599 77 51.8664 77C46.7831 77 41.6998 77 36.5955 77C36.1947 77 35.7939 77 35.4143 76.9164C34.4018 76.7074 33.8534 75.9968 33.9589 75.0144C34.0433 74.1157 34.7182 73.5095 35.7518 73.5095C39.9914 73.5095 44.2309 73.5095 48.4916 73.5095C49.3775 73.5095 50.2845 73.5095 51.1704 73.5095L51.1915 73.4886Z" fill="#17C096"/>
<path d="M13.5836 22.9286C13.5836 19.1246 13.5836 15.3206 13.5836 11.5166C13.5836 8.44409 15.3343 6.70929 18.4349 6.70929C19.6161 6.70929 20.7972 6.70929 21.9995 6.70929C23.2018 6.70929 23.9611 7.46173 23.94 8.50679C23.94 9.51005 23.1596 10.1998 21.9995 10.2207C20.8394 10.2207 19.6793 10.2207 18.5193 10.2207C17.3381 10.2207 17.1482 10.4088 17.1482 11.5793C17.1482 19.2082 17.1482 26.8371 17.1482 34.487C17.1482 36.0964 16.5366 36.9324 15.3554 36.9115C14.2375 36.8906 13.6047 36.0128 13.6047 34.487C13.6047 30.6412 13.6047 26.7744 13.6047 22.9286H13.5836Z" fill="#17C096"/>
<path d="M50.875 16.7209C53.5959 16.7209 56.2958 16.7209 59.0167 16.7209C59.8182 16.7209 60.4721 16.9718 60.8518 17.7033C61.3791 18.7693 60.7252 20.0024 59.5229 20.1905C59.2066 20.2532 58.8902 20.2323 58.5738 20.2323C53.4483 20.2323 48.3017 20.2323 43.1763 20.2323C43.0708 20.2323 42.9653 20.2323 42.8599 20.2323C41.4678 20.2323 40.6241 19.5426 40.6452 18.4557C40.6452 17.3898 41.4889 16.7209 42.8177 16.7209C45.4964 16.7209 48.1963 16.7209 50.875 16.7209Z" fill="#17C096"/>
<path d="M28.8756 43.5581C28.3272 43.579 27.9054 43.3282 27.5257 42.9728C26.4922 41.9487 25.4376 40.9245 24.404 39.8795C23.5814 39.0434 23.5392 38.0193 24.2564 37.3086C25.0157 36.5562 26.0282 36.598 26.914 37.434C27.3992 37.8939 27.9054 38.3537 28.3694 38.8762C28.7491 39.3151 29.0022 39.336 29.424 38.8762C30.9849 37.2877 32.5879 35.741 34.1488 34.1734C34.4651 33.8599 34.8026 33.5464 35.2667 33.4837C36.026 33.3583 36.6799 33.5673 37.1228 34.2361C37.5447 34.8841 37.5236 35.6783 36.9962 36.2636C36.49 36.8279 35.9416 37.3504 35.3932 37.8939C33.7269 39.5451 32.0395 41.1962 30.3732 42.8683C29.9514 43.2864 29.4873 43.6208 28.8756 43.5581Z" fill="#17C096"/>
<path d="M37.3969 18.4348C37.418 18.9574 37.2071 19.3963 36.8275 19.7725C34.6127 21.9671 32.398 24.1618 30.1622 26.3564C29.3607 27.1297 28.4537 27.1297 27.6311 26.3564C26.5132 25.2904 25.4164 24.2036 24.3407 23.0958C23.5603 22.2807 23.5603 21.2983 24.2985 20.5877C25.0157 19.8979 26.0281 19.8979 26.8507 20.6504C27.3147 21.0684 27.7577 21.5282 28.2006 21.9671C28.6787 22.427 29.1568 22.42 29.6349 21.9462C31.1114 20.4832 32.5879 19.041 34.0432 17.5779C34.2964 17.3271 34.5706 17.0554 34.908 16.909C36.0681 16.3865 37.3548 17.1808 37.3759 18.4348H37.3969Z" fill="#17C096"/>
<path d="M47.5425 23.4302C49.1244 23.4302 50.7064 23.4302 52.2883 23.4302C53.4484 23.4302 54.2288 24.0991 54.2921 25.1023C54.3343 26.0638 53.5749 26.8789 52.4148 26.9207C51.1704 26.9834 49.947 26.9416 48.7026 26.9416C46.8042 26.9416 44.9059 26.9416 43.0076 26.9416C42.649 26.9416 42.2694 26.8998 41.9108 26.8162C41.0882 26.6072 40.5398 25.813 40.6241 24.9978C40.7085 24.1618 41.4257 23.472 42.3326 23.4511C44.0622 23.4302 45.8129 23.4511 47.5425 23.4511V23.4302Z" fill="#17C096"/>
<path d="M45.7706 36.9324C44.6738 36.9324 43.5559 36.9742 42.4591 36.9324C41.4889 36.8906 40.8561 36.3472 40.6873 35.532C40.5186 34.7796 40.8139 34.2152 41.4045 33.7554C41.742 33.5046 42.1216 33.4419 42.5224 33.4419C44.716 33.4419 46.8885 33.4419 49.0822 33.4419C50.1368 33.4419 50.9172 34.1107 50.9805 35.0513C51.0438 36.0127 50.3477 36.8488 49.2509 36.9115C48.0908 36.9951 46.9307 36.9115 45.7706 36.9115V36.9324Z" fill="#17C096"/>
<path d="M42.417 43.5581C41.4468 43.5581 40.6241 42.8057 40.6241 41.8651C40.6241 40.9245 41.4257 40.1094 42.3537 40.0885C43.2818 40.0885 44.1466 40.8827 44.1466 41.8024C44.1466 42.743 43.3662 43.5372 42.3959 43.5581H42.417Z" fill="#17C096"/>
</g>
<defs>
<clipPath id="clip0_15_347">
<rect width="78" height="77" fill="white"/>
</clipPath>
</defs>
</svg>
