<svg width="68" height="68" viewBox="0 0 68 68" fill="none" xmlns="http://www.w3.org/2000/svg">
<path d="M68 31.1642V36.7362C67.8273 37.9456 67.6977 39.1551 67.4602 40.3429C64.0269 58.7218 45.9969 70.9456 27.5998 67.3821C8.33892 63.6459 -3.92583 44.3815 1.14849 25.4195C4.4522 13.1309 12.4847 5.11845 24.6415 1.27421C26.8008 0.583115 29.0249 0.302356 31.2705 0C33.1275 0 34.9845 0 36.8415 0C37.8995 0.151178 38.9792 0.259162 40.0372 0.47513C53.5544 3.32591 62.429 11.3599 66.726 24.4908C67.4386 26.6505 67.7193 28.9182 68 31.1642ZM60.4425 17.839C59.989 17.3639 58.9958 16.8455 58.1752 16.608C56.7501 16.2192 56.2535 16.4136 55.4761 17.6662C54.5692 19.1132 52.9498 19.7179 51.3951 19.1996C49.8836 18.7029 48.9983 17.2343 49.0631 15.5713C49.1494 13.0877 49.862 10.7768 50.9632 8.59554C51.2655 8.01243 51.1576 7.73167 50.6177 7.38612C42.8227 2.65641 34.5095 1.49018 25.7212 3.80104C25.5268 3.84424 25.2029 3.80104 25.1598 4.0602C25.095 4.31937 25.3973 4.40575 25.57 4.53534C27.9884 6.45745 30.1909 8.57394 32.0911 11.036C34.0344 13.5628 33.4298 16.6512 30.6659 18.2061C29.8454 18.6813 28.9601 19.0484 28.118 19.5019C26.1314 20.5818 24.1233 21.64 22.5902 23.3462C21.1219 24.9875 19.4376 25.5707 17.3 25.0523C16.3715 24.8364 15.5509 25.0523 14.9463 25.873C14.3633 26.6721 14.752 27.3848 15.1623 28.0759C15.7885 29.1341 16.5874 30.0412 17.3431 30.9915C18.4444 32.3737 19.5456 33.7775 20.1286 35.4836C20.2582 35.8507 20.4957 35.9155 20.8628 35.8292C22.3311 35.4404 23.8426 35.2676 25.3541 35.0085C27.4054 34.6629 29.3488 34.8573 30.9251 36.2395C33.6458 38.6151 36.6256 40.6236 39.6702 42.5674C43.4921 45.051 44.1831 49.8887 41.3112 53.409C40.7066 54.1433 40.102 54.8776 39.4758 55.5903C38.7417 56.4325 37.9859 57.2964 37.2086 58.0955C36.6256 58.6786 35.8482 58.7002 35.3084 58.2251C34.7686 57.7283 34.7254 56.9725 35.2004 56.303C35.3732 56.0654 35.5675 55.871 35.7619 55.6551C36.8847 54.3592 38.0507 53.0634 39.1519 51.746C41.0737 49.4136 40.685 46.4764 38.1803 44.8566C35.0925 42.8481 32.0479 40.8396 29.284 38.3992C28.5714 37.7729 27.6861 37.4921 26.7576 37.6001C24.9438 37.8161 23.13 38.0752 21.3378 38.5072C20.8844 38.6151 20.69 38.7879 20.7332 39.3278C20.8844 40.6236 20.9491 41.9195 20.7764 43.2369C20.3445 46.4548 21.5969 48.8736 24.3608 50.5582C25.095 51.0117 25.7859 51.5516 26.4769 52.0268C26.952 52.3507 27.2111 52.7827 27.1679 53.3658C27.1247 54.1865 27.0815 55.0071 27.0383 55.8062C26.9304 58.2683 27.1463 60.7087 27.8589 63.0844C28.01 63.5811 28.1612 63.7323 28.5714 63.2787C29.0249 62.7604 29.5215 62.2853 30.0182 61.8102C30.6875 61.1838 31.4649 61.1406 32.0263 61.6806C32.5877 62.2205 32.5661 63.0196 31.9615 63.6891C31.7024 63.9914 31.4001 64.2506 31.141 64.5529C31.033 64.6825 30.8171 64.7689 30.9035 64.9849C30.9682 65.1361 31.1842 65.0713 31.3353 65.0929C33.8617 65.352 36.3665 65.2656 38.8712 64.8769C43.5569 64.1426 47.8539 62.4581 51.7622 59.7585C56.9876 56.1518 60.8096 51.3789 63.2064 45.4829C63.3144 45.2238 63.3359 44.9862 63.2064 44.7271C62.429 43.0641 62.1483 41.2716 61.9324 39.479C61.7597 37.924 60.8096 37.2329 59.2549 37.3841C56.7933 37.6217 54.7636 36.7794 53.2953 34.7925C51.7838 32.7624 51.8054 30.3652 51.9349 27.9895C51.9781 27.212 52.6691 26.7585 53.3816 26.8449C54.0726 26.9097 54.5692 27.4496 54.5692 28.2055C54.5692 29.1341 54.6556 30.0628 54.6988 30.9915C54.8499 33.3887 56.7501 34.9869 59.1037 34.6845C61.7597 34.3606 64.0053 35.9803 64.5667 38.5935C64.6531 38.9823 64.5883 39.3926 64.8259 39.803C64.8906 39.5222 64.9338 39.3062 64.9554 39.0903C65.3873 36.4339 65.4736 33.7775 65.2361 31.0994C64.9338 27.6224 64.0485 24.318 62.645 21.1433C62.4722 20.733 62.2131 20.5818 61.7813 20.6034C61.1767 20.6466 60.5936 20.7114 59.989 20.6034C58.8446 20.4306 57.8298 20.6466 57.0956 21.6184C57.0092 21.7264 56.9013 21.7912 56.7933 21.856C56.2535 22.2015 55.5625 22.1584 55.1307 21.748C54.6556 21.3161 54.5045 20.6034 54.9147 20.0635C55.8864 18.8108 57.0524 17.8174 58.7798 17.839C59.3413 17.839 59.9027 17.839 60.5073 17.839H60.4425ZM7.36724 17.7526C7.19449 17.9686 7.15131 18.0334 7.10812 18.0982C3.243 24.7716 1.94743 31.9201 3.28619 39.479C4.43061 46.0013 7.45361 51.5948 12.1609 56.2598C15.6589 59.7153 19.7831 62.1989 24.4688 63.7107C24.6415 63.7755 24.8575 63.9266 25.0302 63.7539C25.2245 63.5811 25.0734 63.3867 25.0302 63.1923C24.296 60.3848 24.0801 57.534 24.3392 54.6616C24.3824 54.1865 24.296 53.8193 23.8642 53.5386C22.9357 52.9123 21.9856 52.3075 21.1219 51.5517C18.9842 49.6943 17.9046 47.3187 17.9477 44.4895C17.9477 42.9129 18.1853 41.3363 18.0341 39.7382C17.8614 37.9888 17.2784 36.7578 15.5293 36.0019C12.4632 34.6629 10.1095 32.46 8.59803 29.4149C6.78423 25.765 6.58989 21.9208 7.41042 17.7742L7.36724 17.7526ZM14.8384 32.2657C14.6008 31.9633 14.3633 31.661 14.1258 31.3586C13.478 30.5379 12.8518 29.7172 12.42 28.767C11.2755 26.2618 12.2688 23.6701 14.7736 22.6119C15.8532 22.1584 16.9761 22.1368 18.0989 22.3959C19.0058 22.6119 19.7399 22.3959 20.3661 21.6832C21.0139 20.9273 21.7697 20.2794 22.5686 19.6747C24.6415 18.1413 26.9304 16.9967 29.2192 15.8521C30.558 15.1826 30.8603 13.93 29.975 12.7853C27.7941 9.91295 25.1166 7.5373 22.2015 5.42081C21.9424 5.22643 21.7049 5.18324 21.4026 5.33442C18.2069 6.75981 15.335 8.68193 12.7655 11.0576C12.5279 11.2735 12.3984 11.5543 12.2688 11.8351C11.0596 14.4267 10.0879 17.1047 9.78564 19.9771C9.41856 23.3894 9.82882 26.6505 11.8586 29.5445C12.6359 30.6675 13.586 31.6394 14.86 32.2873L14.8384 32.2657ZM51.8485 15.0962C51.8485 15.4633 51.8485 15.6577 51.8485 15.8521C51.8485 15.9169 51.8485 15.9817 51.8485 16.0464C51.8917 16.3272 52.0645 16.5216 52.3452 16.608C52.6043 16.6728 52.8202 16.5648 52.993 16.392C53.1009 16.2624 53.2089 16.1112 53.2953 15.9601C54.2022 14.4915 55.4761 13.6708 57.2252 13.714C57.3763 13.714 57.5706 13.7788 57.657 13.6276C57.765 13.4548 57.5706 13.3468 57.4843 13.2389C56.4046 12.0078 55.2386 10.8848 53.9646 9.82656C53.6407 9.5458 53.4464 9.61059 53.2737 9.99934C52.5179 11.6839 51.8917 13.39 51.8269 15.0962H51.8485Z" fill="#17C096"/>
<path d="M31.6594 3.28272C34.0562 3.54188 36.5177 3.84424 38.8066 4.85929C39.1737 5.01047 39.5192 5.20484 39.8646 5.42081C40.7931 6.02552 40.9443 6.78141 40.2965 7.66688C39.0657 9.30824 37.8133 10.928 36.5609 12.5694C36.1723 13.0661 35.6756 13.3037 35.0494 13.1525C34.4664 13.0229 34.1425 12.591 34.0562 12.0294C33.7323 10.3017 32.739 8.91949 31.7025 7.58049C31.2059 6.95418 30.7093 6.34947 30.2342 5.70156C29.8456 5.18324 29.7808 4.60013 30.1047 4.01701C30.4502 3.4339 30.99 3.26112 31.6809 3.28272H31.6594ZM34.2721 6.43586C34.8119 7.21334 35.287 7.90444 35.6756 8.63873C35.8052 8.8979 35.9779 8.8547 36.1291 8.63873C36.4098 8.27159 36.6905 7.90444 36.9712 7.5373C37.1439 7.32133 37.1223 7.14855 36.82 7.04057C36.0427 6.75981 35.2438 6.56544 34.2721 6.45745V6.43586Z" fill="#17C096"/>
<path d="M53.9216 25.657C53.1443 25.657 52.5397 25.1171 52.5397 24.3612C52.5397 23.5837 53.0795 23.0222 53.8568 23.0222C54.6558 23.0222 55.1956 23.5405 55.1956 24.3396C55.1956 25.0955 54.6558 25.657 53.9216 25.657Z" fill="#17C096"/>
<path d="M32.2856 59.8881C32.2856 59.1538 32.9118 58.5706 33.6676 58.5922C34.4233 58.5922 35.0063 59.2185 35.0063 59.9528C35.0063 60.6655 34.337 61.2918 33.6244 61.2703C32.8902 61.2703 32.2856 60.6223 32.3072 59.8881H32.2856Z" fill="#17C096"/>
</svg>
