<svg width="79" height="79" viewBox="0 0 79 63" fill="none" xmlns="http://www.w3.org/2000/svg">
<path d="M0 22.542C0.494099 22.0214 0.957317 21.4855 1.46686 20.9801C7.41149 15.0695 13.3716 9.15889 19.3316 3.26358C19.5015 3.09514 19.6559 2.94201 19.8257 2.77358C20.9066 1.73233 21.694 1.73233 22.744 2.77358C24.9675 4.96326 27.1909 7.15295 29.3835 9.37326C29.9084 9.89389 30.4643 10.1848 31.1746 10.2614C33.2591 10.5217 35.1274 11.3026 36.7486 12.6501C37.0729 12.9105 37.3508 13.1095 37.7523 12.7573C40.0992 10.6901 42.9403 9.9092 45.9976 9.87858C48.1438 9.86326 49.7651 8.9292 51.2474 7.53576C53.6561 5.2542 56.0957 2.98795 58.5353 0.737013C59.6162 -0.2583 60.3728 -0.242987 61.3918 0.767638C66.9813 6.31076 72.5863 11.8539 78.1758 17.4123C79.2875 18.5148 79.2721 19.2805 78.1449 20.4136C72.7716 25.7423 67.3982 31.0711 62.0095 36.3845C61.5462 36.8286 61.4845 37.0736 61.9631 37.5942C63.4609 39.1714 63.8932 41.0548 63.1675 43.1067C62.4264 45.1892 60.8823 46.3836 58.6897 46.7051C58.2265 46.7817 58.0567 46.9348 57.9949 47.4095C57.6861 49.8901 55.7869 51.7736 53.2392 52.0951C52.7914 52.1564 52.637 52.3401 52.5598 52.7536C52.0812 55.4486 50.5217 57.0717 47.7732 57.5158C47.3409 57.5923 47.1247 57.7914 47.063 58.2661C46.7696 60.3639 45.5961 61.8339 43.6351 62.5995C41.597 63.3958 39.6824 62.9823 38.0456 61.5583C37.4898 61.0836 37.2119 61.007 36.6251 61.5276C35.0038 62.9823 33.0892 63.3805 31.0356 62.5995C29.0283 61.8339 27.8548 60.3333 27.5769 58.2048C27.5152 57.7148 27.2372 57.5617 26.8358 57.4851C24.1337 57.0258 22.5587 55.4333 22.0955 52.7689C22.0183 52.3248 21.8485 52.1411 21.3698 52.0798C18.9147 51.7889 16.9538 49.8595 16.6604 47.4248C16.5986 46.9042 16.4134 46.7664 15.9193 46.6898C13.7576 46.3683 12.229 45.1739 11.4878 43.1373C10.7467 41.1008 11.1636 39.202 12.6613 37.6248C13.1708 37.0889 13.0628 36.8286 12.5995 36.3692C8.7085 32.5564 4.84835 28.7129 0.988199 24.8695C0.648505 24.5326 0.339693 24.1498 0.0308812 23.7823C0.0308812 23.3689 0.0308812 22.9708 0.0308812 22.5573L0 22.542ZM34.9884 30.2289C32.5334 30.0758 30.557 28.9426 29.4761 26.5998C28.457 24.3489 28.7041 22.1592 30.2636 20.2145C31.5143 18.6526 33.0429 17.3664 34.448 15.9576C34.8494 15.5595 34.9112 15.3145 34.4171 14.947C33.1819 14.0436 31.8076 13.5689 30.2945 13.3851C29.9548 13.3392 29.7695 13.5076 29.5688 13.7067C23.8403 19.403 18.0964 25.0839 12.3525 30.7648C12.0282 31.0864 11.9973 31.3008 12.3525 31.6223C13.2635 32.4798 14.159 33.3526 15.0237 34.2714C15.4097 34.6848 15.6413 34.6083 16.0119 34.2408C16.892 33.3526 17.7258 32.4033 18.7295 31.6376C20.3816 30.3973 22.2036 30.137 24.1028 30.9026C26.0483 31.6683 27.16 33.1842 27.4534 35.2208C27.5306 35.772 27.7159 35.9098 28.2563 35.9711C30.6033 36.2314 32.626 38.2067 32.873 40.5189C32.9348 41.0395 33.0892 41.2539 33.6451 41.3458C36.3009 41.8205 37.8758 43.367 38.3699 46.0008C38.4625 46.5214 38.6941 46.7205 39.2037 46.797C41.6896 47.1339 43.5271 49.0326 43.8359 51.5133C43.8668 51.743 43.8668 51.9726 44.0366 52.1564C44.6388 52.7383 45.1946 53.3967 45.8586 53.902C47.0475 54.8055 48.8232 54.193 49.2246 52.7689C49.4871 51.8195 49.1938 51.0386 48.4835 50.3495C46.3218 48.2364 44.191 46.108 42.0602 43.9795C41.8132 43.7345 41.5661 43.4589 41.3808 43.1526C41.0102 42.5095 41.1338 41.7745 41.6587 41.2692C42.1683 40.7792 42.9712 40.672 43.5734 41.0395C43.8822 41.2233 44.1447 41.4683 44.3917 41.7133C46.538 43.8264 48.6842 45.9548 50.815 48.0833C51.4327 48.6958 52.1275 49.0633 53.023 48.8489C54.8141 48.4201 55.3546 46.3836 53.9958 45.0208C51.8804 42.877 49.7187 40.7639 47.5725 38.6354C47.3563 38.4211 47.1247 38.2067 46.9549 37.9617C46.4608 37.2879 46.5071 36.4305 47.063 35.8639C47.6188 35.2973 48.4681 35.2361 49.1629 35.7414C49.3945 35.9098 49.5952 36.1089 49.7959 36.3079C51.8495 38.3445 53.9031 40.3811 55.9567 42.4023C56.2347 42.678 56.5126 42.9536 56.8369 43.1373C57.6089 43.5967 58.4118 43.5967 59.1684 43.1373C59.9559 42.6626 60.2956 41.897 60.2029 40.9936C60.1257 40.3351 59.7088 39.8298 59.2456 39.3858C54.2737 34.4551 49.2864 29.5245 44.33 24.5786C43.944 24.1958 43.7278 24.2111 43.3572 24.5786C42.1683 25.8036 40.933 26.998 39.7132 28.2076C38.4471 29.4786 36.903 30.1523 34.9884 30.1983V30.2289ZM32.1165 24.012C32.1937 25.1604 32.6569 26.0792 33.7068 26.6305C34.9575 27.2889 36.3163 27.0439 37.428 25.9414C39.7596 23.6445 42.0756 21.3323 44.4072 19.0355C44.6388 18.8058 44.8858 18.5761 45.1638 18.3923C45.8277 17.9636 46.5997 18.0555 47.1402 18.5914C47.6806 19.1273 47.7887 19.8776 47.3409 20.5514C47.1402 20.8729 46.8622 21.1639 46.5843 21.4089C46.2137 21.7304 46.1983 21.9601 46.5689 22.3276C50.6143 26.3089 54.6443 30.3055 58.6588 34.3173C58.9831 34.6389 59.1838 34.6695 59.5235 34.3173C61.9631 31.8826 64.4182 29.448 66.8887 27.0286C67.2438 26.6917 67.1975 26.4773 66.8733 26.1711C66.0086 25.3289 65.1748 24.4714 64.3256 23.6139C60.4191 19.6326 56.5126 15.6667 52.6061 11.6855C52.3282 11.4098 52.0966 11.027 51.5871 11.4098C49.8423 12.6961 47.8504 13.0942 45.7196 13.1401C43.3881 13.1861 41.2573 13.8292 39.5434 15.483C37.3508 17.6267 35.1583 19.7858 32.9966 21.9448C32.4407 22.5114 32.1628 23.2158 32.1165 24.012ZM21.2308 6.00451C21.1227 6.09639 20.9838 6.18826 20.8603 6.31076C15.348 11.7773 9.83566 17.2592 4.30793 22.7105C3.95279 23.0626 3.95279 23.2923 4.30793 23.6445C5.96007 25.2523 7.59678 26.8601 9.2026 28.4986C9.57317 28.8661 9.78934 28.8201 10.129 28.4833C15.6413 23.0014 21.1536 17.5348 26.6814 12.0683C27.0056 11.7467 27.0365 11.5323 26.6814 11.2108C25.0138 9.58764 23.3771 7.9492 21.7249 6.31076C21.6014 6.18826 21.4933 6.03514 21.2308 6.01983V6.00451ZM74.9487 18.9436C74.8869 18.6526 74.6862 18.5148 74.5318 18.3617C69.8533 13.722 65.1748 9.08232 60.5117 4.42733C60.0639 3.98326 59.7706 3.95264 59.3228 4.38139C57.9023 5.7442 56.4663 7.0917 55.0149 8.42389C54.598 8.8067 54.598 9.08233 55.0149 9.48045C56.6825 11.1342 58.3192 12.8339 59.9559 14.503C62.9977 17.5961 66.0395 20.7045 69.0813 23.7976C69.3438 24.058 69.5445 24.4254 69.9922 23.9661C71.5518 22.3889 73.1421 20.827 74.7171 19.2651C74.8252 19.158 74.9024 19.0355 74.9641 18.9283L74.9487 18.9436ZM21.8793 33.7508C21.447 33.7508 20.9375 33.9345 20.5514 34.3173C18.6986 36.1395 16.8457 37.9617 15.0083 39.8298C14.437 40.4117 14.2362 41.1314 14.4833 41.943C14.9928 43.612 16.9692 44.0561 18.3126 42.7698C20.0573 41.0855 21.7558 39.3551 23.4852 37.6554C23.6396 37.487 23.794 37.3186 23.9175 37.1195C24.3807 36.3845 24.4116 35.6342 23.9793 34.8839C23.5469 34.1336 22.883 33.7661 21.8793 33.7661V33.7508ZM33.0583 59.6901C33.4752 59.7055 33.9848 59.5983 34.3708 59.2155C36.2854 57.3473 38.2309 55.4945 40.0684 53.5498C41.1801 52.3708 40.5625 50.518 39.0338 50.0433C38.092 49.7523 37.3199 50.0739 36.656 50.7323C34.9421 52.4167 33.2436 54.1011 31.5452 55.8008C31.3444 55.9998 31.1746 56.2295 31.0356 56.4592C30.1864 57.9598 31.2209 59.6901 33.0583 59.6901ZM22.0492 48.9408C22.5742 48.9101 23.0528 48.7876 23.4234 48.4355C25.3535 46.5367 27.299 44.6533 29.1827 42.7086C29.9857 41.8817 29.8776 40.6261 29.0901 39.7992C28.3026 38.9876 27.0056 38.8039 26.1718 39.6001C24.18 41.4683 22.2499 43.3976 20.3507 45.3576C19.7177 46.0161 19.6713 46.8889 20.0882 47.7158C20.4897 48.4967 21.1845 48.8948 22.0492 48.9408ZM35.1274 46.843C35.1274 45.8476 34.6796 45.1126 33.8767 44.7451C33.0738 44.3776 32.0393 44.5461 31.3135 45.2351C29.5224 46.9808 27.7313 48.7417 25.9865 50.5333C25.0601 51.4673 25.0755 52.8148 25.9402 53.6876C26.8203 54.5605 28.1637 54.5605 29.121 53.6417C30.9121 51.8961 32.6878 50.1198 34.4634 48.3589C34.8958 47.9301 35.1583 47.4248 35.1274 46.8736V46.843ZM41.5507 59.6901C42.6933 59.6901 43.4499 59.1542 43.7741 58.2048C44.052 57.3626 43.6969 56.2601 43.0175 55.7242C42.7087 55.4792 42.5697 55.663 42.3845 55.8467C41.736 56.5051 41.0874 57.1483 40.4389 57.7914C39.5743 58.6489 39.7287 59.2308 40.933 59.5983C41.1801 59.6748 41.4426 59.6748 41.5661 59.6901H41.5507Z" fill="#17C096"/>
<path d="M10.0518 24.441C9.31068 24.441 8.86291 24.15 8.56953 23.6294C8.24528 23.0629 8.27616 22.4963 8.66218 21.991C8.95555 21.6082 9.31068 21.2713 9.65038 20.9344C10.8547 19.7247 12.0746 18.515 13.2944 17.3207C14.0973 16.5397 14.9928 16.5244 15.6722 17.1829C16.3362 17.8413 16.3362 18.7754 15.5796 19.5563C14.1436 21.011 12.6922 22.435 11.2253 23.8744C10.8702 24.2113 10.4687 24.4869 10.0364 24.441H10.0518Z" fill="#17C096"/>
<path d="M19.0382 12.4819C19.872 12.4819 20.6132 13.2322 20.6132 14.0591C20.6132 14.9166 19.8411 15.6975 18.9919 15.6822C18.1736 15.6669 17.417 14.9166 17.4015 14.105C17.4015 13.2628 18.1736 12.4819 19.0382 12.4972V12.4819Z" fill="#17C096"/>
<path d="M69.0195 20.0157C68.5872 20.0463 68.1548 19.7707 67.7843 19.4032C66.8733 18.515 65.9468 17.6269 65.0667 16.7082C64.2793 15.8966 64.2329 14.9319 64.9432 14.2735C65.638 13.615 66.5336 13.661 67.3365 14.4266C68.3247 15.3913 69.3129 16.356 70.2702 17.3513C70.7643 17.8566 70.8878 18.4691 70.5636 19.1122C70.2857 19.6788 69.8224 20.0004 69.035 20.0157H69.0195Z" fill="#17C096"/>
<path d="M61.8242 9.34286C62.7197 9.34286 63.3991 9.98598 63.43 10.8435C63.4609 11.7316 62.7352 12.4819 61.8551 12.4819C61.0058 12.4819 60.2647 11.7929 60.2338 10.9507C60.2029 10.0779 60.9286 9.34286 61.8242 9.32755V9.34286Z" fill="#17C096"/>
</svg>
