<svg width="65" height="65" viewBox="0 0 65 65" fill="none" xmlns="http://www.w3.org/2000/svg">
<path d="M64.9807 14.3281V50.5929C64.704 51.9763 64.4076 53.3597 63.8937 54.6838C61.621 60.6126 55.5143 64.9407 49.1902 64.9604C38.0835 65 26.9768 64.9604 15.8503 64.9604C14.8424 64.9604 13.874 64.8221 12.9056 64.6245C5.33645 63.0039 -0.0588046 56.1462 0.000483858 48.498C0.0795352 37.8063 0.000483858 27.1146 0.000483858 16.4229C0.000483858 15.6126 0.000483858 14.8221 0.138824 14.0316C1.08744 8.30039 4.15068 4.13043 9.32854 1.52174C10.9293 0.711462 12.6487 0.316205 14.3878 0C26.4827 0 38.5775 0 50.6526 0C50.9293 0.0592885 51.1862 0.118577 51.4629 0.177866C57.0163 1.2253 61.0084 4.32806 63.5182 9.36758C64.289 10.9288 64.6645 12.6285 64.9807 14.3281ZM5.55384 32.3913C5.55384 37.6877 5.55384 43.0039 5.55384 48.3004C5.55384 48.913 5.5736 49.5257 5.65265 50.1383C6.32459 55.3359 10.8503 59.4071 16.0874 59.4269C27.036 59.4466 37.9847 59.4269 48.9135 59.4269C49.5261 59.4269 50.1388 59.3478 50.7317 59.2292C55.8898 58.2016 59.4669 53.8735 59.4669 48.5771C59.4669 37.8261 59.4669 27.0751 59.4669 16.3043C59.4669 15.7707 59.4273 15.2569 59.3483 14.7233C58.6961 9.58498 54.1506 5.49407 48.953 5.47431C37.9847 5.45454 27.0163 5.47431 16.0479 5.47431C15.4353 5.47431 14.8226 5.55336 14.2297 5.67193C9.09139 6.71936 5.53408 11.0277 5.51431 16.2846C5.51431 21.6601 5.51431 27.0158 5.51431 32.3913H5.55384Z" fill="#17C096"/>
<path d="M48.8148 32.4704C48.8148 41.502 41.5619 48.7549 32.5302 48.7549C23.4986 48.7549 16.2457 41.502 16.2457 32.4704C16.2457 23.4388 23.4986 16.1858 32.5302 16.1858C41.5619 16.1858 48.8148 23.4388 48.8148 32.4704ZM32.5698 21.7391C26.6409 21.7391 21.8188 26.5218 21.799 32.4308C21.799 38.3597 26.5816 43.2016 32.471 43.2213C38.4393 43.2213 43.2615 38.4387 43.2812 32.5099C43.2812 26.581 38.4789 21.7589 32.5698 21.7589V21.7391Z" fill="#17C096"/>
<path d="M54.2497 14.9013C54.2497 17.1345 52.3525 19.012 50.1193 18.9922C47.8466 18.9922 46.0284 17.1543 46.0086 14.8816C46.0086 12.6286 47.9058 10.7116 50.1588 10.7511C52.4118 10.7906 54.2695 12.6681 54.2497 14.9013Z" fill="#17C096"/>
</svg>
