<svg width="67" height="65" viewBox="0 0 67 65" fill="none" xmlns="http://www.w3.org/2000/svg">
<path d="M6.81172 0H60.1927C60.4755 0.0790995 60.7786 0.158199 61.0615 0.237298C64.3548 1.14694 66.7188 4.15272 66.7188 7.4749C66.7188 24.1451 66.7188 40.8153 66.7188 57.5053C66.7188 61.5591 63.2234 65 59.0612 65C42.0286 65 24.996 65 7.94318 65C6.79151 65 5.72066 64.7429 4.69022 64.2485C2.26565 63.0818 0.891724 61.1439 0.305786 58.6127V6.34773C0.528038 5.47764 0.7907 4.60754 1.27561 3.81655C2.52831 1.72041 4.42755 0.514146 6.81172 0ZM33.5022 5.12169C25.3193 5.12169 17.1363 5.12169 8.95342 5.12169C8.71096 5.12169 8.46851 5.12169 8.24625 5.12169C6.67028 5.18101 5.63984 6.18953 5.57923 7.73197C5.57923 7.90994 5.57923 8.06814 5.57923 8.24612C5.57923 24.3824 5.57923 40.5385 5.57923 56.6748C5.57923 56.8725 5.57923 57.0505 5.57923 57.2482C5.66005 58.7313 6.67028 59.7201 8.18564 59.7992C8.40789 59.7992 8.60994 59.7992 8.83219 59.7992C25.2789 59.7992 41.7457 59.7992 58.1924 59.7992C58.4147 59.7992 58.6167 59.7992 58.839 59.7992C60.3745 59.7201 61.3645 58.7511 61.4454 57.2482C61.4454 57.0109 61.4454 56.7736 61.4454 56.5561C61.4454 40.4989 61.4454 24.4417 61.4454 8.36477C61.4454 8.14724 61.4454 7.94949 61.4454 7.73197C61.3848 6.16976 60.3543 5.18101 58.7783 5.12169C58.5359 5.12169 58.2934 5.12169 58.0712 5.12169C49.8882 5.12169 41.7053 5.12169 33.5224 5.12169H33.5022Z" fill="#17C096"/>
<path d="M35.6237 28.377C37.1996 26.3402 39.2403 25.1339 41.7457 24.6593C44.2309 24.2045 46.6959 24.3232 49.08 25.1735C52.2522 26.2809 53.808 28.7132 54.5151 31.7585C54.8586 33.2614 55.0404 34.8038 55.0404 36.3463C55.0404 41.8635 55.0404 47.3806 55.0606 52.8978C55.0606 53.5306 54.8788 53.7284 54.2121 53.7284C51.7269 53.6888 49.2417 53.7086 46.7565 53.7284C46.1504 53.7284 45.9887 53.5306 45.9887 52.9572C45.9887 48.5869 46.0089 44.1969 45.9887 39.8266C45.9887 38.4622 45.9685 37.0779 45.6452 35.7332C45.0997 33.4196 43.8672 32.2924 41.5639 32.1738C39.2201 32.0551 37.3613 32.8263 36.3915 35.0016C35.7247 36.4649 35.6237 38.0271 35.6035 39.5893C35.5833 43.9794 35.6035 48.3892 35.6035 52.7792C35.6035 53.7086 35.6035 53.7086 34.6336 53.7086C32.2697 53.7086 29.9259 53.7086 27.562 53.7086C26.6932 53.7086 26.673 53.7086 26.673 52.8781C26.673 43.8409 26.673 34.7841 26.673 25.7469C26.673 25.1537 26.8346 24.9362 27.461 24.9362C29.9259 24.9757 32.3909 24.9559 34.8559 24.9362C35.4216 24.9362 35.6237 25.0944 35.6035 25.6481C35.5631 26.5577 35.6035 27.4674 35.6035 28.377H35.6237Z" fill="#17C096"/>
<path d="M21.1167 39.3126C21.1167 43.8213 21.1167 48.3102 21.1167 52.8189C21.1167 53.689 21.1167 53.689 20.2277 53.689C17.7223 53.689 15.2169 53.689 12.7115 53.689C12.1256 53.689 11.9437 53.511 11.9437 52.9177C11.9437 43.8411 11.9437 34.7446 11.9437 25.668C11.9437 25.0945 12.1256 24.8968 12.7115 24.9165C15.2573 24.9363 17.8031 24.9363 20.3489 24.9165C20.9348 24.9165 21.1167 25.0945 21.1167 25.6877C21.1167 30.236 21.1167 34.7644 21.1167 39.3126Z" fill="#17C096"/>
<path d="M16.6312 21.0999C13.6207 21.0999 11.277 18.7862 11.277 15.8002C11.277 12.8933 13.6611 10.5994 16.6514 10.5994C19.6619 10.5994 22.0057 12.9131 22.0057 15.8991C22.0057 18.806 19.6215 21.0999 16.6312 21.0999Z" fill="#17C096"/>
</svg>
