<svg width="71" height="71" viewBox="0 0 52 71" fill="none" xmlns="http://www.w3.org/2000/svg">
<path d="M28.2841 0C29.7917 0.310662 31.334 0.483252 32.8243 0.914726C36.55 1.98478 39.8598 3.77972 42.7711 6.31679C46.3408 9.44067 48.8535 13.2549 50.3265 17.7422C50.9677 19.6925 51.3316 21.6945 51.4875 23.7311C51.9208 29.1677 50.3265 34.1728 48.2297 39.0571C45.717 44.9079 42.4072 50.3099 38.7681 55.5394C35.4236 60.3547 31.7845 64.9628 27.9548 69.4156C26.5685 71.0207 25.0262 71.0207 23.6399 69.4156C18.5799 63.5476 13.8664 57.4379 9.72478 50.8795C6.53626 45.8053 3.67698 40.5759 1.75347 34.8804C0.765718 32.0154 0.0552318 29.0987 0.00324496 26.0783C-0.0660708 21.4874 0.973666 17.1554 3.26109 13.1513C6.57091 7.31781 11.4403 3.34824 17.8174 1.19087C19.4463 0.638583 21.1099 0.310662 22.8081 0.103554C22.9641 0.0862949 23.1201 0.034518 23.276 0C24.9396 0 26.6032 0 28.2667 0L28.2841 0ZM25.6501 4.7117C23.6399 4.67719 21.4911 5.00511 19.429 5.67821C13.5025 7.64573 9.20491 11.46 6.6229 17.1037C5.04597 20.5382 4.49144 24.1626 4.97665 27.925C5.58316 32.5677 7.38537 36.8307 9.4995 40.9383C13.7971 49.2744 19.3423 56.7821 25.2862 64.0136C25.6674 64.4796 25.91 64.4796 26.2912 64.0136C31.3166 57.9039 36.0301 51.5871 39.9984 44.7526C42.3725 40.6449 44.4693 36.3992 45.8036 31.8256C46.8087 28.3738 47.1033 24.8875 46.3582 21.3494C44.3133 11.6326 35.7875 4.72896 25.6501 4.69444V4.7117Z" fill="#17C096"/>
<path d="M25.7369 38.4876C18.9439 38.4531 12.7921 33.1546 12.7748 25.5779C12.7575 18.0012 18.9959 12.5991 25.8408 12.6336C32.6338 12.6682 38.7856 18.053 38.7682 25.5779C38.7509 33.1718 32.5471 38.4876 25.7369 38.4876ZM33.9508 25.5434C33.9508 21.0043 30.329 17.3971 25.7889 17.3971C21.1967 17.3971 17.5749 20.987 17.5749 25.5606C17.5749 30.117 21.214 33.7241 25.8062 33.7241C30.329 33.7241 33.9508 30.0825 33.9508 25.5434Z" fill="#17C096"/>
</svg>
