<svg width="73" height="73" viewBox="0 0 73 73" fill="none" xmlns="http://www.w3.org/2000/svg">
<path d="M2.21324 71.996H0.956571C0.0187562 71.3396 -0.0750252 70.5143 0.281344 69.4639C2.25076 63.6307 4.18265 57.7975 6.11455 51.9643C6.32087 51.3454 6.63973 50.8389 7.10864 50.37C11.2913 46.1874 15.4739 42.0047 19.6566 37.8221C20.0942 37.3844 20.088 36.9343 19.6378 36.4716C13.5983 30.4321 7.55879 24.3926 1.51926 18.353C-0.50642 16.3274 -0.50642 13.6264 1.51926 11.6195C4.85788 8.24339 8.25277 4.88601 11.6101 1.49113C12.0228 1.07849 12.4917 0.722117 13.0356 0.478286C14.8925 -0.365748 16.8807 0.0281344 18.4374 1.58491C24.4395 7.58692 30.4415 13.5889 36.4622 19.591C36.9374 20.0661 37.4188 20.0599 37.9065 19.5722C43.5896 13.889 49.254 8.22464 54.9372 2.56023C58.3696 -0.853411 63.1525 -0.853411 66.5661 2.56023C67.3539 3.32924 68.0854 4.15452 68.9106 4.88601C70.4487 6.27398 71.5553 7.90578 72.0054 9.95021V12.7637C71.574 14.7331 70.5049 16.2898 69.0794 17.6966C63.5088 23.2109 57.9945 28.7628 52.4426 34.3146C52.005 34.7523 52.005 35.1837 52.4426 35.6088C58.4259 41.5921 64.4091 47.5941 70.4111 53.5586C71.1614 54.3089 71.7241 55.1341 72.0054 56.147V58.2477C71.6491 59.3168 70.9738 60.1608 70.1861 60.9486C67.0913 64.0246 63.9965 67.1006 60.9392 70.1954C60.1514 70.9832 59.3074 71.6584 58.2383 72.0148H55.9875C54.8809 71.6397 54.0181 70.8894 53.1929 70.0829C47.3221 64.1747 41.4139 58.3039 35.5432 52.3957C35.0743 51.9268 34.8117 51.8893 34.324 52.3957C30.1414 56.6159 25.94 60.7985 21.7385 65.0187C21.2696 65.4876 20.7257 65.8252 20.088 66.0315C18.1186 66.6693 16.1304 67.3445 14.161 68.0009C10.1659 69.3326 6.18958 70.6831 2.19449 72.0336L2.21324 71.996ZM57.1692 68.8637C57.6006 68.9013 57.9757 68.6574 58.2946 68.3386C61.6519 64.9812 65.0093 61.6238 68.3667 58.2664C69.117 57.5162 69.0982 56.7284 68.3667 55.9782C62.2522 49.8449 56.1376 43.7303 50.023 37.6158C49.6667 37.2594 49.4416 37.2781 49.104 37.6158C47.1346 39.6039 45.1464 41.5921 43.1582 43.5803C42.9519 43.7866 42.7831 43.9741 42.8206 44.3117C42.8769 44.9119 42.5956 45.3809 42.1829 45.8123C40.9075 47.0877 39.6508 48.3819 38.3566 49.6198C37.9065 50.0512 37.8877 50.295 38.3566 50.7452C38.8068 51.1766 39.1069 51.3454 39.5945 50.7827C40.0822 50.22 40.6261 49.7136 41.1888 49.1884C41.9391 48.4756 42.8769 48.4569 43.5146 49.0571C44.1898 49.7136 44.1711 50.6139 43.4021 51.4204C42.8581 52.0018 42.2954 52.5645 41.714 53.1085C41.1888 53.5774 41.5264 53.8587 41.8641 54.1963C42.1829 54.5152 42.4455 54.7965 42.8957 54.3089C43.4396 53.7086 44.0398 53.1272 44.64 52.5645C45.3902 51.8518 46.3093 51.833 46.947 52.4707C47.5847 53.1085 47.566 54.0463 46.8532 54.7778C46.3093 55.3592 45.7654 55.9407 45.1652 56.4658C44.6775 56.8972 44.8651 57.1786 45.2402 57.5349C45.6153 57.9101 45.9154 58.1351 46.3843 57.6287C46.9095 57.0285 47.4909 56.4846 48.0724 55.9407C48.8414 55.2279 49.7417 55.2279 50.3794 55.8844C50.9984 56.5221 50.9609 57.4599 50.2481 58.2102C49.7417 58.7541 49.2165 59.3168 48.6538 59.7857C48.0911 60.2546 48.26 60.5547 48.6913 61.0049C49.1415 61.455 49.4041 61.4362 49.8167 61.0049C50.3419 60.4047 50.9233 59.8607 51.5048 59.3168C52.2363 58.6416 53.1366 58.6603 53.7743 59.2793C54.412 59.917 54.412 60.7985 53.718 61.53C53.1741 62.1115 52.6302 62.6929 52.03 63.2181C51.5423 63.6307 51.5986 63.9121 52.03 64.3247C52.4614 64.7561 52.7427 64.9437 53.2679 64.381C54.5246 63.0493 55.8187 61.7739 57.1317 60.4984C57.8444 59.7857 58.8197 59.7482 59.4387 60.3671C60.0764 61.0048 60.0577 61.9239 59.3637 62.6929C59.1949 62.8805 59.0073 63.068 58.8197 63.2369C57.6756 64.381 56.5315 65.5251 55.4061 66.6693C55.2561 66.8193 55.0122 66.9694 55.0872 67.2507C55.1998 67.7196 56.6628 68.8262 57.2442 68.8262L57.1692 68.8637ZM15.0426 21.3916C15.7365 21.3728 16.2054 21.6729 16.5055 22.2356C16.8432 22.8733 16.7119 23.4735 16.243 23.9987C15.6428 24.6552 15.0238 25.2929 14.3673 25.8931C13.8421 26.3995 14.2735 26.6433 14.5736 26.9622C14.8737 27.281 15.1176 27.5249 15.5302 27.0747C16.0929 26.4558 16.7119 25.8743 17.3121 25.2929C18.0248 24.6176 18.9439 24.5989 19.5816 25.1991C20.238 25.8368 20.238 26.7746 19.5441 27.5061C19.0189 28.0688 18.475 28.6315 17.9123 29.1379C17.4621 29.5318 17.4058 29.8319 17.8935 30.2633C18.55 30.8447 18.5312 30.8822 19.1689 30.2445C20.4444 28.9691 21.701 27.6749 22.9952 26.437C23.8768 25.593 25.0959 25.7618 25.6023 26.7559C25.9212 27.3936 25.7712 28.1063 25.1522 28.7253C23.933 29.9632 22.7139 31.1823 21.4947 32.4015C20.7445 33.1518 20.7445 33.1518 21.551 33.9208C21.8698 34.2209 22.0762 34.2021 22.3575 33.9208C22.9202 33.3206 23.5204 32.7579 24.0831 32.1764C24.4207 31.8201 24.8333 31.5575 25.321 31.595C25.8087 31.6325 26.1088 31.4262 26.4089 31.1073C29.0535 28.4627 31.6794 25.7993 34.3615 23.1734C34.8304 22.7045 34.8492 22.4232 34.3615 21.9542C28.3408 15.971 22.3387 9.95021 16.3367 3.9482C15.3239 2.93536 14.6487 2.93536 13.6546 3.9482C10.4285 7.17428 7.20242 10.4004 3.97634 13.6264C2.94474 14.658 2.94474 15.3145 3.97634 16.3649C4.14514 16.5337 4.31395 16.6837 4.464 16.8713C4.7641 17.2277 5.02669 17.1901 5.34554 16.8713C5.94575 16.2523 6.54595 15.6146 7.18366 15.0519C8.04645 14.2829 9.19059 14.4705 9.67825 15.4271C9.99711 16.046 9.88457 16.74 9.32188 17.359C8.72168 17.9967 8.10272 18.5781 7.50252 19.2158C6.93983 19.816 7.69008 19.9848 7.8964 20.3224C8.10272 20.6413 8.36531 20.7163 8.68417 20.3787C9.26561 19.7598 9.86581 19.1783 10.466 18.5969C11.235 17.8466 12.0978 17.8091 12.773 18.4468C13.4483 19.1033 13.4295 20.0223 12.6793 20.8101C12.1166 21.4103 11.5539 21.9918 10.9349 22.5357C10.4848 22.9483 10.7098 23.2109 11.0475 23.4923C11.3476 23.7548 11.5726 24.2988 12.0978 23.7361C12.6605 23.1359 13.2607 22.5732 13.8421 21.9918C14.1798 21.6541 14.5736 21.3916 15.0426 21.4291V21.3916ZM17.9685 56.9535C18.4187 57.066 18.7563 56.7284 19.1127 56.372C23.3141 52.1706 27.5155 47.9692 31.7169 43.7678C39.2944 36.1903 46.872 28.6127 54.4495 21.0352C54.8872 20.5975 54.8934 20.1599 54.4683 19.7222C53.7743 19.0283 53.0803 18.3343 52.3863 17.6403C51.9362 17.1901 51.486 17.1901 51.0359 17.6403C39.5945 29.0816 28.1344 40.523 16.6931 51.9831C14.7237 53.9712 15.0801 53.0709 15.3051 55.7906C15.3051 55.8656 15.3051 55.9219 15.3239 55.9969C15.3614 56.4658 15.624 56.7097 16.0929 56.7472C16.6743 56.8034 17.2558 56.8597 17.9685 56.9347V56.9535ZM68.8731 11.3382C68.9106 10.1003 68.4792 8.99364 67.5977 8.07458C66.4348 6.85543 65.2532 5.65502 64.034 4.51089C62.1959 2.78531 59.3074 2.78531 57.4693 4.51089C56.4189 5.48622 55.4436 6.53657 54.4308 7.5119C54.0744 7.84951 54.1119 8.1121 54.4308 8.43095C57.5068 11.507 60.5828 14.5643 63.6589 17.6591C63.9965 17.9967 64.2403 18.0154 64.5967 17.6591C65.5908 16.6275 66.6224 15.6521 67.6165 14.6205C68.4792 13.7202 68.9106 12.6324 68.8919 11.3194L68.8731 11.3382ZM12.6793 51.2891C13.0731 51.3078 13.2982 50.9515 13.542 50.7076C25.3398 38.9099 37.1375 27.1122 48.9352 15.352C49.4604 14.8269 49.3103 14.583 48.8789 14.1329C48.3537 13.5702 48.0724 13.889 47.6973 14.2642C35.8245 26.1369 23.9518 38.0096 12.0791 49.9011C11.779 50.2012 11.1412 50.5201 11.2913 50.8765C11.4601 51.3078 12.1728 51.139 12.6605 51.3078L12.6793 51.2891ZM20.8382 59.4106C20.8945 59.7107 20.932 60.0108 21.0258 60.3109C21.0821 60.4984 21.0258 60.7798 21.2509 60.8548C21.4947 60.9298 21.5885 60.6672 21.7573 60.5359C21.8323 60.4797 21.8886 60.4046 21.9636 60.3296C33.8926 48.4006 45.8216 36.4716 57.7506 24.5614C57.9194 24.3926 58.0883 24.2238 58.2383 24.0549C58.3508 23.9237 58.4259 23.7924 58.3508 23.6048C58.0507 22.8358 57.338 22.667 56.7753 23.2297C45.3715 34.6335 33.9864 46.0186 22.5826 57.4224C22.1137 57.8913 21.6635 58.3415 21.1946 58.8104C21.0258 58.9792 20.8382 59.1292 20.857 59.3918L20.8382 59.4106ZM18.2874 62.7867C18.1373 62.074 17.9685 61.2862 17.7997 60.4797C17.7247 60.1796 17.4621 60.1045 17.1995 60.0858C16.1304 59.9545 15.0613 59.8232 13.9922 59.7107C13.0356 59.5981 12.5292 59.0917 12.4167 58.1351C12.2854 57.0848 12.1541 56.0532 12.0603 55.0028C12.0228 54.5527 11.7977 54.3276 11.3663 54.2526C10.7286 54.14 10.0721 54.0088 9.43442 53.8775C9.04053 53.7837 8.81546 53.915 8.68417 54.2901C8.02769 56.2595 7.37122 58.2477 6.71475 60.2171C6.60222 60.5735 6.67724 60.7985 7.01486 60.9486C8.90924 61.8301 10.2972 63.2369 11.1975 65.1312C11.3288 65.4313 11.5164 65.5626 11.8727 65.4501C13.8609 64.7749 15.8678 64.1184 17.856 63.4619C18.1186 63.3681 18.3249 63.2368 18.2874 62.8242V62.7867ZM51.6924 10.3629C51.336 10.5504 51.0546 10.8693 50.8108 11.2069C50.6232 11.4695 50.8671 11.6383 51.0171 11.8071C54.1119 14.9019 57.2067 17.9779 60.2827 21.0915C60.7892 21.5979 61.033 21.2227 61.3706 20.9039C61.6895 20.6038 61.877 20.36 61.4644 19.9286C58.3696 16.8525 55.2748 13.7577 52.18 10.663C52.0487 10.5317 51.9362 10.3816 51.6924 10.3629ZM8.25277 66.3691C8.25277 66.3316 8.23401 66.2754 8.21526 66.2379C7.69008 65.2063 6.92107 64.4185 5.88948 63.9121C5.58938 63.762 5.45808 63.9683 5.38306 64.2122C5.02669 65.2625 4.67032 66.3316 4.3327 67.4007C4.20141 67.7946 4.3327 67.9447 4.74534 67.8134C5.81445 67.4758 6.8648 67.1194 7.93391 66.763C8.10272 66.7068 8.29028 66.6317 8.27153 66.3879L8.25277 66.3691Z" fill="#17C096"/>
<path d="M19.2627 11.0943C19.2627 13.4951 17.3308 15.4457 14.9487 15.427C12.5854 15.427 10.616 13.4388 10.616 11.0755C10.616 8.65596 12.5479 6.78033 15.0425 6.79909C17.4433 6.79909 19.2814 8.67472 19.2814 11.0943H19.2627ZM14.93 9.95015C14.2735 9.95015 13.7483 10.4941 13.7858 11.113C13.8046 11.7132 14.386 12.2572 15.005 12.2384C15.624 12.2197 16.0741 11.732 16.0741 11.0943C16.0741 10.4191 15.6052 9.95015 14.93 9.9689V9.95015Z" fill="#17C096"/>
</svg>
