<svg width="65" height="65" viewBox="0 0 65 59" fill="none" xmlns="http://www.w3.org/2000/svg">
<path d="M64.9831 37.9127C64.6102 39.6928 63.9492 41.3359 62.7627 42.7224C60.8475 44.9475 58.4068 46.0772 55.5085 46.1114C51.8136 46.1627 48.1017 46.1456 44.4068 46.1114C42.1865 46.0943 40.5085 47.0186 39.3051 48.8842C37.2034 52.085 35.0848 55.2858 32.9831 58.4865C32.5255 59.1712 32.5085 59.1712 32.0678 58.4865C29.9661 55.3029 27.8475 52.1363 25.7797 48.9356C24.5255 47.0014 22.8136 46.06 20.5085 46.0943C16.9492 46.1456 13.4068 46.0943 9.8475 46.0943C4.79666 46.0943 0.949205 42.8251 0.0847985 37.81C0.0170019 37.4163 0.0170019 37.0055 5.27751e-05 36.5947C5.27751e-05 27.5402 5.27751e-05 18.4856 5.27751e-05 9.4311C-0.0168964 4.5016 4.0509 0.290978 8.9831 0.0684653C10.1865 0 11.3899 0 12.5933 0C26.4577 0 40.3221 0 54.2034 0C55.5593 0 56.9153 0 58.2203 0.427908C61.6949 1.5747 63.8983 3.91964 64.8136 7.49695C64.8644 7.71947 64.9322 7.94198 65 8.18161V37.9127H64.9831ZM32.5424 4.00522C24.9661 4.00522 17.4068 4.00522 9.83055 4.00522C6.30513 4.00522 3.88141 6.43574 3.88141 9.99594C3.88141 18.7082 3.9153 27.4204 3.88141 36.1326C3.86446 39.7784 6.67801 42.2431 9.8136 42.1575C13.356 42.0548 16.9153 42.1233 20.4746 42.1404C24.1356 42.1404 27 43.6466 29.0339 46.7447C30.0848 48.3536 31.1526 49.9283 32.1865 51.5544C32.4577 51.9823 32.6271 51.9481 32.8814 51.5544C33.8814 49.9968 34.9322 48.4735 35.9322 46.9159C38 43.6809 40.9322 42.1404 44.7288 42.1575C48.3051 42.1575 51.8814 42.1575 55.4407 42.1575C58.7458 42.1575 61.1525 39.6928 61.1525 36.338C61.1525 27.5059 61.1525 18.6568 61.1525 9.82477C61.1525 9.29417 61.0678 8.76356 60.9322 8.25007C60.2542 5.75109 58.0848 4.05657 55.5085 4.03945C47.8475 4.03945 40.2034 4.03945 32.5424 4.03945V4.00522Z" fill="#17C096"/>
<path d="M55.2034 11.2454H9.77971V15.5245H55.2034V11.2454Z" fill="#17C096"/>
<path d="M21.4746 20.6594H9.77971V24.9385H21.4746V20.6594Z" fill="#17C096"/>
<path d="M55.2034 20.6594H26.7288V24.9385H55.2034V20.6594Z" fill="#17C096"/>
<path d="M55.2034 29.5599H16.8983V33.839H55.2034V29.5599Z" fill="#17C096"/>
</svg>
